<?xml version="1.0" encoding="UTF-8"?>
<svg xmlns="http://www.w3.org/2000/svg" version="1.1" viewBox="0 0 12 12">
  <defs>
    <style>
      .cls-1 {
        fill: #fff;
        fill-rule: evenodd;
      }
    </style>
  </defs>
  <!-- Generator: Adobe Illustrator 28.6.0, SVG Export Plug-In . SVG Version: 1.2.0 Build 709)  -->
  <g>
    <g id="_图层_1" data-name="图层_1">
      <path class="cls-1" d="M6,0C9.3,0,12,2.6,12,5.9c0,2.5-1.6,4.8-4.1,5.6-.3,0-.4-.1-.4-.3s0-.8,0-1.6-.2-.9-.4-1.1c1.3-.1,2.7-.6,2.7-2.9s-.2-1.2-.6-1.6c0-.1.3-.8,0-1.6,0,0-.5-.2-1.7.6-.5-.1-1-.2-1.5-.2-.5,0-1,0-1.5.2-1.1-.8-1.7-.6-1.7-.6-.3.8-.1,1.4,0,1.6-.4.4-.6.9-.6,1.6,0,2.3,1.4,2.8,2.7,2.9-.2.1-.3.4-.4.8-.3.2-1.2.4-1.7-.5-.1-.2-.5-.6-.9-.6-.5,0-.2.3,0,.4.3.1.5.7.6.8.1.3.5,1,2,.7,0,.5,0,1,0,1.1s-.1.3-.4.3C1.7,10.7,0,8.4,0,5.9,0,2.6,2.7,0,6,0Z"/>
    </g>
  </g>
</svg>